<?xml version="1.0" encoding="utf-8"?>
<!-- Generator: Adobe Illustrator 25.0.1, SVG Export Plug-In . SVG Version: 6.00 Build 0)  -->
<svg version="1.0" id="Layer_1" xmlns="http://www.w3.org/2000/svg" xmlns:xlink="http://www.w3.org/1999/xlink" x="0px" y="0px"
	 viewBox="0 0 936 591" style="enable-background:new 0 0 936 591;" xml:space="preserve">
<style type="text/css">
	.st0{fill:#F16A24;}
	.st1{fill:none;}
</style>
<path class="st0" d="M275.3,314.6c-0.6-0.6-1-1.4-1.1-2.2v-57.9h-19.5V290c0,3.5-0.6,6.9-1.7,10.2c-1,3-2.5,5.8-4.5,8.4
	c-1.8,2.3-4.1,4.2-6.8,5.6c-3,1.3-6.2,2.1-9.5,2.2c-2.6,0.3-5.3-0.5-7.3-2.2c-1.7-1.5-3.1-3.4-3.9-5.6c-0.7-2.7-1.1-5.5-1.1-8.4
	v-35.9c0.3-2.8-0.5-5.6-2.2-7.8c-2.2-1.7-5-2.4-7.8-2.1h-19v16.2h6.1c1-0.1,1.9,0.1,2.8,0.6c0.8,0.7,1.2,1.7,1.1,2.8v30.2
	c-0.3,5.8,0.9,11.5,3.4,16.7c2,4.1,5.4,7.5,9.6,9.4c4.5,2.1,9.5,3.1,14.5,2.8c3.2-0.1,6.4-0.5,9.5-1.1c2.9-0.7,5.5-2,7.8-3.9
	c2.2-1.5,4.2-3.2,6.2-5c1.6-1.8,2.9-3.9,3.9-6.1h0.5v5.6c-0.1,2.4,0.9,4.7,2.8,6.1c2.2,1.7,5,2.5,7.8,2.2H285v-16.2h-6.3
	C276.5,315.1,275.9,315.1,275.3,314.6 M161.9,303.4c-0.8,2.8-2.3,5.3-4.4,7.2c-1.6,2-3.8,3.5-6.1,4.5c-2.3,1.4-5.1,2-7.8,1.7
	c-3,0.2-5.9-0.6-8.4-2.2c-2.4-1.4-4.5-3.3-6.1-5.6c-1.6-2.4-2.9-5.1-3.9-7.8c-0.7-2.9-1.1-5.9-1.1-8.9c-0.1-3.8,0.5-7.6,1.7-11.2
	c1-2.8,2.5-5.5,4.5-7.8c1.8-1.8,3.8-3.3,6-4.4c2.3-0.9,4.8-1.3,7.2-1.1c3.6,0,7.1,0.9,10.2,2.8c2.8,2.3,5.2,5.1,6.8,8.4
	c1.7,4.1,2.4,8.5,2.2,12.9C163.5,295.6,163.4,299.7,161.9,303.4 M173.7,263.7c-3.1-3.5-6.9-6.4-11.2-8.4c-4.6-1.9-9.6-2.8-14.5-2.8
	c-3,0.1-6,0.5-8.9,1.1c-2.1,0.4-4.2,1.2-6.1,2.2c-1.7,0.8-3.2,2-4.5,3.4c-1.1,1.1-2.2,1.7-2.8,2.8c-0.6,0-0.6,0.5-1.1,1.1l0,0v-28.5
	c0.4-2.9-0.7-5.8-2.8-7.8c-1.1-2.2-3.9-3.4-7.8-3H95.5v16.4h6.1c1-0.1,1.9,0.1,2.8,0.6c0.8,0.7,1.3,1.7,1.2,2.8v87.7h17.8v-8.9l0,0
	c1,1.4,2.1,2.7,3.4,3.9c1.4,1.3,2.9,2.4,4.5,3.4c2.2,1.2,4.4,2.1,6.8,2.8c2.9,0.7,5.9,1,8.9,1.1c5-0.1,9.9-1,14.5-2.8
	c4.6-1.7,8.6-4.6,11.7-8.4c3.4-3.8,6-8.1,7.8-12.9c1.8-5.4,2.8-11,2.8-16.7c0.2-5.5-0.6-11-2.2-16.2c-1.8-4.7-4.5-9.1-7.8-12.8
	 M348.5,301.8c-1,2.6-2.3,5-3.9,7.2c-1.8,1.6-3.9,2.9-6.1,3.9c-2.2,0.7-4.5,1-6.8,1.1c-3.8,0.2-7.6-1-10.6-3.4
	c-2.8-2.3-5.2-5.1-6.8-8.4c-1.6-3.9-2.3-8.1-2.1-12.3c-0.2-3.8,0.5-7.7,2.2-11.1c1.2-3,3.4-5.6,6.1-7.3c3.1-1.9,6.6-2.8,10.2-2.8
	c2.6,0.1,5.3,0.5,7.8,1.1c2.3,0.5,4.5,1.7,6.2,3.4c1.9,1.9,3.4,4.2,4.4,6.8c1.2,3.6,1.8,7.4,1.7,11.1
	C350.5,294.8,349.7,298.4,348.5,301.8 M355.3,255.5c-1.2,0.6-2.2,1.6-2.8,2.8c-0.6,1-1,2.2-1.1,3.4v2.2h-0.5c0-0.4-0.3-0.8-0.6-1.1
	c-0.5-1.1-1.7-1.7-2.8-2.8c-1.4-1.3-2.9-2.4-4.5-3.4c-2.2-1.2-4.4-2.1-6.8-2.8c-3.1-0.7-6.3-1-9.5-1.1c-5.2,0-10.3,1-15.1,2.8
	c-4.4,1.8-8.3,4.6-11.2,8.4c-2.9,3.7-5.2,7.9-6.8,12.3c-1.6,4.9-2.3,10-2.2,15.1c-0.2,5.1,0.6,10.2,2.2,15.1
	c1.6,4.4,3.9,8.6,6.8,12.3c3,3.7,6.8,6.5,11.2,8.4c9,4.3,19.4,4.5,28.5,0.5c3.4-1.8,6.5-4.3,8.9-7.2h0.4v11.2c0,3.1-0.5,6.1-1.7,8.9
	c-1,2.3-2.7,4.2-4.9,5.5c-2.1,1.7-4.6,2.9-7.2,3.4c-2.8,0.7-5.6,1-8.4,1.1v16.8c4.1-0.1,8.2-0.5,12.3-1.1c3.9-0.7,7.7-2,11.2-3.9
	c3.5-1.7,6.7-4,9.5-6.8c2.9-3,5-6.6,6.2-10.6c1.6-4.5,2.4-9.2,2.2-14v-57c0.5-1.1,0.5-1.7,1.1-2.2c0.7-0.4,1.5-0.6,2.2-0.5h6.1
	v-16.5h-18.5C358.1,254.2,356.5,254.6,355.3,255.5 M521.6,253.3c-3.9,0.1-7.7,1-11.2,2.8c-3.4,1.6-6.3,4.1-8.4,7.3
	c-2.4,3-4.3,6.5-5.6,10.1h-0.5V264c0.1-2.7-0.9-5.3-2.8-7.2c-2.2-1.8-5-2.6-7.8-2.4h-17.8v16.2h6.1c1-0.1,1.9,0.1,2.8,0.6
	c0.8,0.7,1.2,1.7,1.1,2.8v57.6H497v-30.9c-0.1-2.3,0.1-4.5,0.6-6.8c0.5-2.2,0.5-3.9,1.1-6.2c0.7-2.7,2.1-5.2,3.9-7.2
	c2.7-3.9,6.6-6.6,11.2-7.8c2.2-0.5,4.5-0.7,6.8-0.6h4.5v-18.9h-3.4 M727.1,255.9c-1.9,1.6-3.2,3.8-3.9,6.2L712,305.2
	c-0.6,1.1-0.6,2.8-1.1,3.9c0,1.7-0.6,2.8-0.6,4.5h-0.5v-1.3c-0.2-0.9-0.4-1.9-0.6-2.8c-0.5-1.1-0.5-2.8-1.1-3.9l-14.5-50.2h-17.3
	l-14.5,50.2c-0.6,1.1-0.6,2.8-1.1,3.9c-0.1,0.9-0.3,1.9-0.6,2.8v1.2h-0.5v-1.1c-0.2-1-0.4-1.9-0.6-2.9c-0.1-1.4-0.5-2.7-1.1-3.9
	l-11.7-43c-0.5-2.5-1.9-4.7-3.9-6.1c-2.2-1.2-4.7-1.8-7.2-1.7h-13.5V271h2.3c1-0.1,2,0.1,2.8,0.5c0.7,0.6,1.3,1.4,1.7,2.2l19,58.1
	h22.3l13.5-44c0.6-1.1,0.6-2.8,1.1-3.9l0.6-3.4v-1.1h0.5v1.1c0.3,1.1,0.5,2.2,0.6,3.4c0.5,1.1,0.5,2.8,1.1,3.9l13.5,44h22.3l19-58.1
	c0.4-0.8,1-1.6,1.7-2.2c0.8-0.5,1.8-0.7,2.8-0.5h2.2v-16.6h-13.6c-2.7-0.2-5.4,0.4-7.8,1.7 M810.5,304.1c-1,2.8-2.5,5.5-4.5,7.8
	c-1.8,1.7-3.9,3.2-6.1,4.3c-2.3,1.1-4.7,1.7-7.2,1.7c-3.6,0-7.1-0.9-10.2-2.8c-2.8-2.3-5.2-5.1-6.8-8.4c-1.6-4.1-2.4-8.4-2.2-12.8
	c-0.1-3.5,0.5-6.9,1.7-10.2c0.8-2.7,2.3-5.2,4.4-7.2c3.5-4,8.7-6.3,14-6.1c3-0.2,5.9,0.6,8.4,2.2c2.5,1.3,4.6,3.2,6.3,5.5
	c1.6,2.4,2.9,5.1,3.9,7.8c0.7,2.9,1.1,5.9,1.1,8.9c-1.2,2.9-2.1,5.9-2.8,8.9L810.5,304.1z M835.1,315.3c-0.9,0-1.7-0.4-2.2-1.1
	c-0.6-0.6-1-1.4-1.1-2.2v-77.8c0.3-2.9-0.7-5.8-2.9-7.8c-2.2-1.8-5-2.6-7.8-2.4h-18.4v16.4h6.1c1.1,0,1.7,0,2.2,0.5
	c0.8,0.7,1.2,1.7,1.1,2.8v17.8h-0.6c0-0.4-0.2-0.8-0.5-1.1c-0.5-1.1-1.7-1.7-2.2-2.2c-1.3-1.3-2.8-2.2-4.5-2.8
	c-2.2-1-4.4-1.8-6.8-2.2c-2.9-0.7-5.9-1-8.9-1.1c-5,0.1-9.9,1-14.5,2.8c-4.5,1.6-8.4,4.5-11.2,8.4c-3.3,3.7-5.7,8.1-7.3,12.8
	c-1.8,5.4-2.8,11.1-2.8,16.8c0.1,5.5,0.8,10.9,2.2,16.2c1.4,4.8,3.9,9.2,7.2,12.8c3.1,3.5,6.9,6.4,11.2,8.4
	c4.6,1.8,9.5,2.8,14.5,2.8c3.2-0.1,6.4-0.5,9.5-1.1c2.5-0.4,4.9-1.6,6.8-3.4c1.7-1,3.3-2.3,4.5-3.9c1.3-1.4,2.4-2.9,3.4-4.5h0.5v2.8
	c0,1.4,0.4,2.7,1.1,3.9c0.7,1.3,1.9,2.3,3.4,2.8c1.8,0.7,3.7,1.1,5.6,1.1h17.8v-16.2l-5.6,0.6L835.1,315.3z M453.5,307.3
	c-1,1.1-2.2,2-3.4,2.8l-5,3.4c-2.2,1.1-4.5,1.7-6.8,2.8c-2.6,0.7-5.2,1.1-7.8,1.1c-3.1,0-6.1-0.5-8.9-1.7c-2.9-1-5.5-2.5-7.7-4.5
	c-2.3-2-4.2-4.5-5.6-7.3c-1.5-3.3-2.2-7-2.2-10.6c0-4.3,1-8.5,2.8-12.3c1.7-3.7,4.7-6.7,8.4-8.4c3.7-2.3,8-3.5,12.3-3.4
	c1.3-0.1,2.7,0.1,3.9,0.5c1.4,0.1,2.7,0.5,3.9,1.1c1,0.4,2,1,2.8,1.7c0.7,0.8,1.1,1.8,1.1,2.8v4.5h17.3v-10.1
	c0.1-2.5-0.7-4.9-2.2-6.8c-1.2-2.1-3-3.8-5-5l-6.8-3.4c-2.2-0.5-5-1.1-7.8-1.7c-2.2-0.5-4.5-0.7-6.8-0.6c-6.1-0.1-12.2,1-17.9,3.4
	c-5.2,1.8-9.8,4.9-13.5,8.9c-3.8,3.5-6.7,7.9-8.4,12.8c-3.7,10.1-3.7,21.2,0,31.3c1.9,4.8,4.8,9.2,8.4,12.8
	c3.9,3.8,8.5,6.8,13.5,8.9c5.7,2.3,11.8,3.5,17.9,3.4c4,0,7.9-0.6,11.7-1.7c3.2-0.9,6.4-2,9.5-3.4c2.4-1,4.7-2.4,6.8-3.9
	c2-1.5,3.9-3.2,5.6-5l-8.4-13.5c-0.6-0.6-1.1-0.6-1.7,0.5 M595.3,302.9c-1.1,2.9-2.8,5.6-5,7.8c-2,2.1-4.5,3.8-7.2,5
	c-2.9,1.1-5.9,1.7-8.9,1.7c-3.1,0-6.1-0.5-8.9-1.7c-2.8-1-5.3-2.7-7.3-5c-2.2-2.3-3.9-4.9-5-7.8c-2.2-6.5-2.2-13.6,0-20.1
	c1.1-2.9,2.8-5.6,5-7.8c2-2.2,4.5-3.9,7.3-5c2.8-1.1,5.9-1.7,8.9-1.7c6.3-0.1,12.3,2.4,16.8,6.8c2.3,2.1,4,4.8,5,7.8
	c1.2,3.2,1.8,6.7,1.7,10.2c-0.5,3.4-1.2,6.8-2.2,10.2 M604.4,264c-4-3.8-8.8-6.7-14-8.4c-5.4-2-11.2-3-16.9-2.8
	c-5.7,0.1-11.4,1-16.8,2.8c-5.2,1.8-9.9,4.7-14,8.4c-4.1,3.4-7.2,7.8-8.9,12.8c-2.2,5.1-3.4,10.6-3.4,16.2
	c-0.1,5.6,1.1,11.1,3.4,16.2c2.1,4.8,5.1,9.2,8.9,12.8c3.9,4,8.7,6.8,14,8.4c5.4,2,11.1,3,16.8,2.8c5.8,0,11.5-0.9,17-2.8
	c5.2-1.8,10-4.7,14-8.4c4.1-3.5,7.3-7.9,9.5-12.8c2.2-5.1,3.4-10.6,3.4-16.2c0.1-5.6-1.1-11.1-3.4-16.2
	C611.7,271.9,608.5,267.6,604.4,264"/>
<rect x="68" y="203" class="st1" width="800" height="185"/>
</svg>
