<?xml version="1.0" encoding="utf-8"?>
<!-- Generator: Adobe Illustrator 26.0.3, SVG Export Plug-In . SVG Version: 6.00 Build 0)  -->
<svg version="1.0" id="katman_1" xmlns="http://www.w3.org/2000/svg" xmlns:xlink="http://www.w3.org/1999/xlink" x="0px" y="0px"
	 viewBox="0 0 600 450" style="enable-background:new 0 0 600 450;" xml:space="preserve">
<style type="text/css">
	.st0{clip-path:url(#SVGID_00000015357010764021015760000008297769776998645639_);}
	.st1{fill:#010202;}
</style>
<g>
	<defs>
		<rect id="SVGID_1_" x="71.3" y="181.2" width="457.7" height="88.3"/>
	</defs>
	<clipPath id="SVGID_00000117649363245431748170000006857676010337492159_">
		<use xlink:href="#SVGID_1_"  style="overflow:visible;"/>
	</clipPath>
	<g style="clip-path:url(#SVGID_00000117649363245431748170000006857676010337492159_);">
		<path class="st1" d="M83.1,182.3c-1.2-0.7-2.6-1.1-4.3-1.1c-1.8,0-3.3,0.4-4.4,1.1c-1.1,0.7-1.7,1.7-1.7,2.9v80.1
			c0,1,0.6,1.9,1.7,2.8c1.2,0.9,2.6,1.3,4.3,1.3c1.5,0,3-0.5,4.3-1.3c1.2-0.9,1.8-1.8,1.8-2.8v-80.1C84.9,184,84.3,183.1,83.1,182.3
			z M93.2,224.4c-0.7,0.7-1.1,1.7-0.9,3.2c0.1,1.5,0.7,2.8,1.9,4c1.1,1.2,2.4,2.1,3.9,2.4c1.5,0.4,2.6,0.1,3.3-0.5l6.4-4v35.9
			c0,1,0.6,1.9,1.7,2.8c1.1,0.9,2.6,1.3,4.3,1.3c1.7,0,3.2-0.5,4.4-1.3c1.2-0.9,1.8-1.8,1.8-2.8V217c0-1.2-0.6-2.1-1.8-2.8
			c-1.2-0.7-2.7-1.1-4.5-1.1c-1.8,0-3.2,0.4-4.3,1.1L93.2,224.4z M141.2,252.7c0,2.4,0.7,4.4,2.1,5.6c1.3,1.2,3.2,1.9,5.3,1.9
			c2.9,0,5.7-1.2,8.3-3.6c2.7-2.4,4-5.1,4-7.9v-4.3H158c-3.4,0-6.2,0.1-8.4,0.5c-2.2,0.4-4.1,1.1-5.8,2.4
			C142.1,248.6,141.2,250.4,141.2,252.7z M129,254.2c0-6.2,2.3-10.5,6.9-12.9c4.6-2.4,11.2-3.6,19.9-3.6h5v-2.2c0-3.5-1-6.4-2.8-9
			c-1.8-2.6-4.7-3.8-8.5-3.8c-3.3,0-6.2,0.6-8.6,1.9c-2.4,1.2-3.9,1.9-4.1,1.9c-1.3,0-2.3-0.6-3.2-1.9c-0.9-1.2-1.2-2.7-1.2-4.3
			c0-1.9,1.8-3.8,5.6-5.2c3.6-1.5,7.7-2.2,11.8-2.2c7.9,0,13.7,2.2,17.5,6.4c3.8,4.3,5.7,9.6,5.7,16v28.9c0,1.1-0.6,2.1-1.7,2.8
			c-1.1,0.9-2.6,1.2-4.1,1.2c-1.6,0-2.8-0.4-3.9-1.2c-1.1-0.9-1.6-1.7-1.6-2.8v-4c-5.1,6-10.9,9-17.3,9c-4.5,0-8.1-1.3-10.9-3.9
			C130.5,262.9,129,259.2,129,254.2z M183.4,246.5v-10.5c0-6.8,1.9-12.4,6-16.7c4-4.3,9.8-6.3,17.7-6.3c5,0,9.1,0.9,12.5,2.6
			c3.4,1.7,5.1,3.6,5.1,5.8c0,1.3-0.5,2.7-1.5,3.9c-1,1.3-2.1,1.9-3.4,1.9c-0.4,0-1.7-0.6-4.1-1.7c-2.3-1.1-4.9-1.7-7.8-1.7
			c-8.4,0-12.6,4-12.6,12.2v10.3c0,8.1,4.3,12.2,12.8,12.2c2.9,0,5.5-0.6,7.9-1.8c2.3-1.2,3.8-1.8,4.1-1.8c1.6,0,2.8,0.6,3.8,1.8
			c1,1.2,1.5,2.6,1.5,3.9c0,2.2-1.7,4.1-5.2,6c-3.5,1.8-7.8,2.8-12.9,2.8c-7.9,0-13.9-2.1-17.9-6.3
			C185.5,259.1,183.4,253.5,183.4,246.5z M234.2,264.5v-79.4c0-1.2,0.5-2.1,1.6-2.8c1.1-0.7,2.4-1.1,4.3-1.1c1.7,0,3.3,0.4,4.4,1.1
			c1.2,0.7,1.8,1.7,1.8,2.8v51.4l24-22.1c0.7-0.7,1.6-1.1,2.6-1.1c1.3,0,2.6,0.6,3.9,1.8c1.3,1.2,1.9,2.6,1.9,3.9c0,1-0.4,1.8-1,2.6
			l-14.8,13.3l18,26.1c0.5,0.7,0.7,1.3,0.7,2.1c0,1.3-0.7,2.8-2.3,4.1c-1.6,1.3-3,2.1-4.5,2.1c-1.3,0-2.3-0.6-3.2-1.7l-16.9-25
			l-8.4,7.7v14.5c0,1-0.6,1.9-1.8,2.8c-1.2,0.9-2.7,1.2-4.4,1.2c-1.7,0-3-0.4-4.1-1.2C234.8,266.5,234.2,265.5,234.2,264.5z
			 M298.1,236.7h19.1c1.7,0,2.8-0.2,3.4-0.7c0.6-0.5,0.9-1.3,0.9-2.8c0-3-1.1-5.6-3.3-7.8c-2.2-2.1-5-3.2-8.3-3.2c-3.2,0-6,1-8.3,3
			c-2.3,2.1-3.4,4.6-3.4,7.7v3.8H298.1z M286,246.5v-10.9c0-6.1,2.3-11.3,7.1-15.8c4.6-4.4,10.3-6.7,16.9-6.7c6.3,0,11.7,2.1,16.2,6
			c4.5,4,6.7,9,6.7,15.2c0,2.3-0.2,4.3-0.9,5.7c-0.5,1.5-1.3,2.4-2.6,3c-1.1,0.6-2.2,1-3.2,1.1c-1,0.1-2.3,0.2-3.9,0.2h-24.2v2.7
			c0,3.9,1.3,6.9,4.1,9.2c2.8,2.3,6.3,3.4,10.8,3.4c3.2,0,6.1-0.7,8.9-2.2s4.5-2.2,5.1-2.2c1.3,0,2.4,0.6,3.3,1.8
			c1,1.2,1.3,2.4,1.3,3.6c0,1.9-1.8,3.8-5.5,5.8c-3.6,1.9-8.1,2.9-13.5,2.9c-7.8,0-14.2-2.1-19.2-6.3
			C288.5,258.9,286,253.3,286,246.5z M342.4,264.5v-46.8c0-1.2,0.6-2.1,1.7-2.8c1.1-0.7,2.6-1.1,4.3-1.1c1.5,0,2.8,0.4,3.9,1.1
			c1.1,0.7,1.6,1.7,1.6,2.9v5.1c1.3-2.7,3.3-5,6-6.9c2.7-1.9,5.5-2.9,8.6-2.9h3.6c1.2,0,2.3,0.5,3.2,1.6c1,1.1,1.3,2.3,1.3,3.8
			s-0.5,2.8-1.3,3.9c-1,1.1-1.9,1.6-3.2,1.6h-3.6c-3.6,0-6.9,1.6-9.7,4.7c-2.8,3.2-4.1,7.2-4.1,12.2v23.6c0,1-0.6,1.9-1.8,2.8
			c-1.2,0.9-2.7,1.2-4.4,1.2c-1.7,0-3-0.4-4.3-1.2C342.9,266.5,342.4,265.5,342.4,264.5z M387.4,247.4c0,3.9,1.3,7.4,4.1,10.5
			c2.8,3,6.2,4.5,10.1,4.5c4,0,7.4-1.5,10.2-4.5c2.8-3,4.3-6.4,4.3-10.5v-12.5c0-3.8-1.5-7.2-4.3-10.1c-2.9-3-6.2-4.5-10.1-4.5
			c-3.9,0-7.3,1.5-10.1,4.5c-2.8,3-4.1,6.3-4.1,10.1v12.5H387.4z M380,247.4v-12.5c0-5.8,2.2-10.9,6.4-15.2
			c4.3-4.3,9.4-6.4,15.3-6.4c5.8,0,11.1,2.1,15.3,6.3c4.4,4.3,6.6,9.4,6.6,15.2v12.5c0,5.7-2.2,10.8-6.6,15.3
			c-4.4,4.4-9.5,6.7-15.3,6.7c-5.7,0-10.8-2.2-15.2-6.7C382.2,258.3,380,253.2,380,247.4z M432.7,265.5v-48.8c0-0.9,0.4-1.5,1-2.1
			c0.7-0.5,1.6-0.7,2.7-0.7c1,0,1.7,0.2,2.4,0.9c0.7,0.6,1,1.2,1,1.9v5.3c1.3-2.6,3.3-4.6,6-6.3c2.7-1.7,5.8-2.6,9.4-2.6
			c5.5,0,10.3,2.1,14.3,6.3c4,4.3,6.1,9.4,6.1,15.2v30.8c0,1-0.4,1.7-1.1,2.2c-0.7,0.5-1.7,0.9-2.7,0.9c-1,0-1.7-0.2-2.6-0.9
			c-0.7-0.5-1.1-1.2-1.1-2.2v-30.6c0-3.8-1.5-7.2-4.3-10.1c-2.8-3-6.2-4.5-10.1-4.5c-3.6,0-6.8,1.3-9.5,4c-2.8,2.7-4.1,6.2-4.1,10.6
			v30.6c0,0.7-0.4,1.5-1.2,2.1c-0.7,0.6-1.6,1-2.7,1c-1.1,0-1.9-0.4-2.7-1C433,267.1,432.7,266.3,432.7,265.5z M491.6,237.9h23
			c2.3,0,3.8-0.2,4.6-0.7c0.7-0.5,1.1-1.6,1.1-3.2c0-3.8-1.3-7.2-4.1-10.1c-2.7-2.9-6.1-4.4-10.2-4.4c-4,0-7.4,1.3-10.2,4.1
			c-2.8,2.8-4.1,6.1-4.1,9.9V237.9z M484.2,247.4v-12.9c0-5.8,2.2-10.8,6.4-15c4.3-4.1,9.5-6.3,15.4-6.3c5.8,0,10.8,2.1,15.1,6
			c4.3,4,6.3,9,6.3,15.1c0,2.2-0.2,3.9-0.7,5.2c-0.5,1.3-1.3,2.2-2.4,2.8c-1.1,0.5-2.1,0.9-3,1.1c-1,0.1-2.2,0.2-3.8,0.2h-25.9v4.3
			c0,4.5,1.6,8.1,4.9,10.9c3.3,2.7,7.4,4.1,12.5,4.1c2.6,0,4.9-0.4,6.8-1.2c1.6-0.6,3.1-1.4,4.5-2.3c1.1-0.7,1.8-1.2,2.4-1.2
			c0.9,0,1.6,0.4,2.2,1.2c0.6,0.9,1,1.6,1,2.3c0,1.6-1.7,3.3-5,5s-7.4,2.6-12.3,2.6c-7.3,0-13.1-2.1-17.8-6.1
			C486.5,259.3,484.2,253.9,484.2,247.4z"/>
	</g>
</g>
</svg>
