<?xml version="1.0" encoding="utf-8"?>
<!-- Generator: Adobe Illustrator 26.0.3, SVG Export Plug-In . SVG Version: 6.00 Build 0)  -->
<svg version="1.0" id="katman_1" xmlns="http://www.w3.org/2000/svg" xmlns:xlink="http://www.w3.org/1999/xlink" x="0px" y="0px"
	 viewBox="0 0 600 450" style="enable-background:new 0 0 600 450;" xml:space="preserve">
<style type="text/css">
	.st0{fill:#E95420;}
</style>
<g id="ubuntu-logo">
	<g>
		<path class="st0" d="M504.3,228.8c-15.3,0-27.8-12.4-27.8-27.8s12.4-27.8,27.8-27.8c15.3,0,27.8,12.4,27.8,27.8
			S519.7,228.8,504.3,228.8z M487,197.7c-1.8,0-3.3,1.5-3.3,3.3c0,1.8,1.5,3.3,3.3,3.3c1.8,0,3.3-1.5,3.3-3.3
			C490.3,199.2,488.8,197.7,487,197.7z M510.8,212.9c-1.6,0.9-2.1,3-1.2,4.5c0.9,1.6,3,2.2,4.6,1.2c1.6-0.9,2.2-3,1.2-4.6
			C514.4,212.5,512.4,211.9,510.8,212.9L510.8,212.9z M494.2,201c0-3.3,1.6-6.2,4.1-8L496,189c-2.9,2-5.1,4.9-6,8.4
			c1.1,0.9,1.7,2.2,1.7,3.6c0,1.5-0.7,2.8-1.7,3.6c0.9,3.5,3.1,6.5,6,8.4l2.4-4.1C495.9,207.3,494.2,204.3,494.2,201z M504,191.3
			c5.1,0,9.3,3.9,9.7,8.9l4.8-0.1c-0.2-3.7-1.8-7-4.3-9.4c-1.3,0.5-2.7,0.4-4-0.3c-1.3-0.7-2.1-2-2.3-3.3c-1.2-0.3-2.5-0.5-3.9-0.5
			c-2.3,0-4.5,0.5-6.4,1.5l2.3,4.2C501.1,191.6,502.5,191.3,504,191.3L504,191.3z M504,210.8c-1.5,0-2.9-0.3-4.1-0.9l-2.3,4.2
			c1.9,1,4.1,1.5,6.4,1.5c1.4,0,2.6-0.2,3.9-0.5c0.2-1.3,1-2.6,2.3-3.3c1.3-0.7,2.7-0.8,4-0.3c2.5-2.4,4.1-5.7,4.3-9.4l-4.8-0.1
			C513.3,206.9,509.1,210.8,504,210.8L504,210.8z M510.8,189.2c1.6,0.9,3.6,0.4,4.6-1.2c0.9-1.6,0.4-3.6-1.2-4.6
			c-1.6-0.9-3.6-0.4-4.6,1.2C508.7,186.2,509.2,188.3,510.8,189.2L510.8,189.2z M123.7,273.9c-2.8,0.7-6.5,1.5-11.2,2.2
			c-4.6,0.8-10,1.2-16.1,1.2c-5.3,0-9.7-0.8-13.4-2.3c-3.6-1.5-6.5-3.7-8.7-6.5c-2.2-2.8-3.8-6.1-4.8-10c-1-3.9-1.5-8.1-1.5-12.8
			v-38.6h12.3v36c0,8.4,1.3,14.4,4,18c2.6,3.6,7.1,5.4,13.4,5.4c1.3,0,2.7,0,4.1-0.1c1.4-0.1,2.7-0.2,4-0.3c1.2-0.1,2.4-0.3,3.4-0.4
			c1-0.1,1.7-0.3,2.2-0.5v-58h12.3V273.9L123.7,273.9z M153.7,210.2c1.5-1,3.8-2,6.8-3c3-1.1,6.5-1.6,10.5-1.6
			c4.9,0,9.3,0.9,13.2,2.6c3.8,1.8,7.1,4.2,9.7,7.4c2.6,3.2,4.6,7,6,11.4c1.4,4.4,2.1,9.3,2.1,14.6c0,5.5-0.8,10.5-2.5,15
			c-1.6,4.4-3.9,8.2-6.9,11.3c-3,3.1-6.6,5.5-10.8,7.1c-4.2,1.7-9,2.5-14.3,2.5c-5.7,0-10.8-0.4-15.2-1.2c-4.4-0.8-8-1.6-10.8-2.4
			v-98.5l12.3-2.1L153.7,210.2L153.7,210.2L153.7,210.2z M158.9,266.2c2.2,0.3,5,0.5,8.4,0.5c6.6,0,11.9-2.2,15.9-6.5
			c4-4.4,6-10.6,6-18.6c0-3.5-0.3-6.8-1.1-9.9c-0.7-3.1-1.9-5.7-3.4-8c-1.6-2.3-3.6-4-6.1-5.3c-2.5-1.3-5.5-1.9-9.1-1.9
			c-3.4,0-6.4,0.6-9.3,1.7c-2.8,1.2-5,2.3-6.5,3.6v43.5C154.9,265.5,156.7,265.9,158.9,266.2z M270.6,273.9
			c-2.8,0.7-6.5,1.5-11.2,2.2c-4.6,0.8-10,1.2-16.1,1.2c-5.3,0-9.7-0.8-13.3-2.3c-3.6-1.5-6.5-3.7-8.7-6.5c-2.2-2.8-3.8-6.1-4.8-10
			c-1-3.8-1.4-8.1-1.4-12.8v-38.6h12.3v36c0,8.4,1.3,14.4,4,18c2.6,3.6,7.1,5.4,13.4,5.4c1.3,0,2.7,0,4.1-0.1c1.4-0.1,2.7-0.2,4-0.3
			c1.2-0.1,2.4-0.3,3.4-0.4c1-0.1,1.7-0.3,2.2-0.5v-58h12.3L270.6,273.9L270.6,273.9L270.6,273.9z M288.3,209.1
			c2.8-0.7,6.6-1.5,11.2-2.3c4.7-0.8,10-1.2,16.1-1.2c5.5,0,10,0.8,13.6,2.3c3.6,1.5,6.5,3.7,8.7,6.5c2.2,2.8,3.7,6.1,4.6,10
			c0.9,3.9,1.3,8.2,1.3,12.8v38.6h-12.3v-36c0-4.2-0.3-7.8-0.9-10.8c-0.6-3-1.5-5.4-2.8-7.3c-1.3-1.9-3.1-3.2-5.3-4
			c-2.2-0.9-4.9-1.3-8.2-1.3c-1.3,0-2.7,0.1-4.1,0.1c-1.4,0.1-2.8,0.2-4,0.3c-1.3,0.1-2.4,0.3-3.4,0.5c-1,0.2-1.7,0.3-2.2,0.4v58
			h-12.3V209.1z M372.2,207.1h26v10.3h-26v31.7c0,3.4,0.3,6.3,0.8,8.5c0.5,2.3,1.3,4,2.4,5.3c1.1,1.3,2.4,2.2,4,2.7
			c1.6,0.5,3.4,0.8,5.5,0.8c3.8,0,6.8-0.4,9-1.3c2.2-0.8,3.7-1.4,4.5-1.8l2.6,10.1c-1.2,0.6-3.4,1.4-6.5,2.4
			c-3.1,1-6.7,1.5-10.6,1.5c-4.7,0-8.5-0.6-11.6-1.8c-3-1.2-5.5-3-7.3-5.4c-1.9-2.4-3.2-5.3-3.9-8.8c-0.8-3.5-1.1-7.5-1.1-12.1V188
			l12.3-2.1L372.2,207.1L372.2,207.1L372.2,207.1z M465.2,273.9c-2.8,0.7-6.5,1.5-11.2,2.2c-4.6,0.8-10,1.2-16,1.2
			c-5.3,0-9.7-0.8-13.4-2.3c-3.6-1.5-6.5-3.7-8.7-6.5c-2.2-2.8-3.8-6.1-4.8-10c-1-3.8-1.5-8.1-1.5-12.8v-38.6H422v36
			c0,8.4,1.3,14.4,4,18c2.6,3.6,7.1,5.4,13.4,5.4c1.3,0,2.7,0,4.1-0.1c1.4-0.1,2.7-0.2,4-0.3c1.2-0.1,2.4-0.3,3.4-0.4
			c1-0.1,1.7-0.3,2.2-0.5v-58h12.3L465.2,273.9L465.2,273.9L465.2,273.9z"/>
	</g>
</g>
</svg>
